<?xml version="1.0" encoding="UTF-8" standalone="no"?>
<!-- Created with Inkscape (http://www.inkscape.org/) -->

<svg
   xmlns:dc="http://purl.org/dc/elements/1.1/"
   xmlns:cc="http://creativecommons.org/ns#"
   xmlns:rdf="http://www.w3.org/1999/02/22-rdf-syntax-ns#"
   xmlns:svg="http://www.w3.org/2000/svg"
   xmlns="http://www.w3.org/2000/svg"
   xmlns:sodipodi="http://sodipodi.sourceforge.net/DTD/sodipodi-0.dtd"
   xmlns:inkscape="http://www.inkscape.org/namespaces/inkscape"
   width="1024"
   height="1024"
   viewBox="0 0 270.93333 270.93334"
   version="1.1"
   id="svg8"
   inkscape:version="0.92.1 r15371"
   sodipodi:docname="leafbean-v2.svg">
  <defs
     id="defs2" />
  <sodipodi:namedview
     id="base"
     pagecolor="#ffffff"
     bordercolor="#666666"
     borderopacity="1.0"
     inkscape:pageopacity="0.0"
     inkscape:pageshadow="2"
     inkscape:zoom="0.30296919"
     inkscape:cx="953.69548"
     inkscape:cy="512"
     inkscape:document-units="mm"
     inkscape:current-layer="svg8"
     showgrid="false"
     units="px"
     inkscape:pagecheckerboard="true"
     inkscape:window-width="1366"
     inkscape:window-height="710"
     inkscape:window-x="0"
     inkscape:window-y="0"
     inkscape:window-maximized="1"
     inkscape:snap-nodes="true"
     inkscape:snap-object-midpoints="true"
     inkscape:snap-center="false"
     inkscape:snap-global="true"
     inkscape:snap-bbox="false"
     inkscape:snap-midpoints="false"
     inkscape:bbox-paths="false"
     inkscape:object-paths="true"
     showguides="true"
     inkscape:guide-bbox="true" />
  <metadata
     id="metadata5">
    <rdf:RDF>
      <cc:Work
         rdf:about="">
        <dc:format>image/svg+xml</dc:format>
        <dc:type
           rdf:resource="http://purl.org/dc/dcmitype/StillImage" />
        <dc:title />
      </cc:Work>
    </rdf:RDF>
  </metadata>
  <path
     style="display:inline;fill:#000000;fill-opacity:1;stroke:#000000;stroke-width:0;stroke-miterlimit:4;stroke-dasharray:none;stroke-dashoffset:0;stroke-opacity:1"
     d="m 137.44037,0.52916217 c -0.24386,0.3629725 -0.52936,0.83928893 -0.84834,1.42095963 -0.10638,0.193886 -0.21598,0.3997292 -0.32954,0.6166733 -0.11365,0.2169648 -0.2305,0.4449724 -0.35075,0.6843814 -0.12028,0.2393755 -0.24392,0.4900233 -0.37034,0.7512625 -0.3792,0.7836881 -0.78508,1.6641022 -1.20969,2.6331024 -0.42458,0.9689876 -0.86795,2.026511 -1.32308,3.1641258 -9.68673,26.7386718 -16.65218,59.2012758 -11.42886,86.2022608 -0.36644,-0.358808 -0.73215,-0.717738 -1.10528,-1.076734 -0.0195,-0.0188 -0.0399,-0.0383 -0.0596,-0.0571 C 106.04405,76.254804 81.678511,65.763729 66.670443,60.20137 c -1.03629,-0.370011 -2.012316,-0.699951 -2.916966,-0.990267 -0.904644,-0.290298 -1.738228,-0.540582 -2.49117,-0.751267 -0.250978,-0.07024 -0.49334,-0.136059 -0.725978,-0.197398 -0.232636,-0.06157 -0.455339,-0.118707 -0.668879,-0.1713 -0.213554,-0.05256 -0.418068,-0.100499 -0.611778,-0.144379 -0.580949,-0.131014 -1.070892,-0.222399 -1.460118,-0.274077 0.09945,0.379815 0.250171,0.854353 0.4519,1.414436 0.06725,0.18681 0.140065,0.383529 0.218611,0.588937 0.07844,0.205409 0.162429,0.419501 0.252056,0.642776 0.08966,0.22328 0.184823,0.456245 0.285494,0.696615 0.302032,0.721179 0.654128,1.517547 1.053895,2.379417 0.399785,0.8619 0.847525,1.789099 1.342652,2.771772 13.07784,20.684662 21.187105,37.224535 41.034948,49.052525 0.0221,0.0175 0.0433,0.0362 0.0652,0.0539 0.45022,0.36478 0.90013,0.72528 1.34918,1.08243 0.0937,0.0743 0.18696,0.14681 0.28061,0.22106 -12.105662,-0.22285 -24.697642,3.49537 -35.1325,6.92372 -0.657977,0.23327 -1.270002,0.46219 -1.831263,0.68193 -0.561265,0.2198 -1.071439,0.4308 -1.526184,0.62892 -0.151538,0.066 -0.297407,0.13023 -0.436406,0.19333 -0.139063,0.063 -0.271176,0.12453 -0.39725,0.18433 -0.126119,0.0599 -0.24614,0.1176 -0.358908,0.17375 -0.338381,0.1684 -0.615796,0.32049 -0.827942,0.45109 0.201061,0.14712 0.465112,0.32008 0.788788,0.5147 0.107969,0.065 0.223284,0.13182 0.344229,0.20149 0.12107,0.0694 0.248179,0.14143 0.381749,0.21535 0.133696,0.0739 0.273422,0.15044 0.419275,0.22839 0.437538,0.23365 0.928697,0.48435 1.470718,0.74801 0.542007,0.26367 1.134386,0.53979 1.771715,0.82468 20.584683,8.02603 34.833769,11.54932 51.760679,7.85036 -1.42706,1.46694 -2.67409,2.74912 -3.84198,3.96025 -6.06661,3.36372 -11.64701,8.20141 -16.40631,14.34421 -9.847948,12.71073 -15.380157,29.95036 -15.380157,47.92603 0,37.43241 23.510277,67.77703 52.511937,67.77708 29.00169,-4e-5 52.51274,-30.34467 52.51275,-67.77708 0,-17.97567 -5.53303,-35.2153 -15.38097,-47.92603 -4.75953,-6.14312 -10.34016,-10.98047 -16.40712,-14.34421 -1.16771,-1.21096 -2.41427,-2.49347 -3.84116,-3.96025 16.92692,3.69894 31.17599,0.17567 51.76066,-7.85036 0.63732,-0.28489 1.22971,-0.56101 1.77173,-0.82468 0.542,-0.26366 1.03397,-0.51434 1.47153,-0.74801 0.14585,-0.078 0.28573,-0.15437 0.41927,-0.22839 0.13371,-0.0739 0.26083,-0.14569 0.38175,-0.21535 0.12107,-0.0694 0.23544,-0.1367 0.34342,-0.20149 0.32392,-0.19476 0.58932,-0.36763 0.79042,-0.5147 h -0.002 c -0.21216,-0.13054 -0.48957,-0.28269 -0.82794,-0.45109 -0.11271,-0.0562 -0.23202,-0.11396 -0.35809,-0.17375 -0.12613,-0.0599 -0.25904,-0.12137 -0.39806,-0.18433 -0.13892,-0.0632 -0.28401,-0.12723 -0.4356,-0.19333 -0.45471,-0.19812 -0.96492,-0.40912 -1.52619,-0.62892 -0.56126,-0.21974 -1.1741,-0.44866 -1.83208,-0.68193 -10.43483,-3.42835 -23.02683,-7.14657 -35.13249,-6.92372 0.0935,-0.0743 0.18682,-0.14648 0.28061,-0.22106 0.44904,-0.35715 0.89895,-0.71765 1.34918,-1.08243 0.0221,-0.0177 0.0439,-0.0364 0.066,-0.0539 19.84786,-11.82799 27.95713,-28.367863 41.03495,-49.052525 0.49513,-0.982673 0.94286,-1.909872 1.34264,-2.771772 0.39981,-0.86187 0.75103,-1.658238 1.05309,-2.379417 0.10065,-0.24037 0.19584,-0.473335 0.28549,-0.696615 0.0896,-0.223275 0.17441,-0.437367 0.25287,-0.642776 0.0785,-0.205408 0.15121,-0.402127 0.2186,-0.588937 0.20172,-0.560083 0.35259,-1.034621 0.45191,-1.414436 -0.38923,0.05161 -0.87996,0.143013 -1.46093,0.274077 -0.19371,0.04372 -0.39742,0.09166 -0.61096,0.144379 -0.21356,0.05256 -0.43622,0.109848 -0.66888,0.1713 -0.23262,0.0614 -0.475,0.127076 -0.72598,0.197398 -0.75294,0.210685 -1.58733,0.460969 -2.49198,0.751267 -0.90468,0.290316 -1.87987,0.620256 -2.91615,0.990267 -15.00809,5.562375 -39.37443,16.053434 -53.74529,34.66672 -0.0197,0.01897 -0.0383,0.03847 -0.058,0.0571 -0.37312,0.359013 -0.74046,0.717942 -1.10691,1.076734 5.22345,-27.000968 -1.74199,-59.463589 -11.42874,-86.2022608 -0.45508,-1.1376325 -0.89844,-2.1951226 -1.32305,-3.1641268 -0.42458,-0.9690002 -0.82967,-1.8494142 -1.20888,-2.6331024 -0.12644,-0.2612392 -0.25006,-0.5118536 -0.37032,-0.7512626 -0.12028,-0.2393965 -0.238,-0.4674332 -0.35158,-0.6843813 -0.11365,-0.2169609 -0.22323,-0.4227705 -0.32954,-0.6166734 -0.31899,-0.581658 -0.60447,-1.05798693 -0.84834,-1.42095953 z m -0.005,33.95052783 c 0.20056,2.078588 0.75664,10.934099 0.98374,21.262215 0.14317,6.506371 0.19147,12.143003 0.18517,17.306033 0.0141,5.451928 -0.0299,11.414036 -0.18273,18.370534 -0.22776,10.355028 -0.78699,19.235388 -0.98618,21.283408 -0.19917,-2.04802 -0.75759,-10.92838 -0.98536,-21.283408 -0.15291,-6.956498 -0.19852,-12.918606 -0.18273,-18.370534 -0.005,-5.16303 0.0421,-10.799662 0.18517,-17.306033 0.22718,-10.328196 0.78243,-19.184225 0.98292,-21.262215 z m 59.89654,40.138486 c -1.09145,1.170525 -5.96873,6.055916 -11.85711,11.488413 -3.6999,3.413403 -6.94152,6.324317 -9.9345,8.958092 -3.15008,2.794775 -6.62385,5.813359 -10.72491,9.272139 -6.10467,5.14856 -11.513,9.33692 -12.79355,10.25913 1.09145,-1.1705 5.96872,-6.05587 11.85711,-11.4884 3.69981,-3.413344 6.94156,-6.323491 9.9345,-8.957279 3.15011,-2.794776 6.62457,-5.813353 10.72573,-9.272138 6.10465,-5.148555 11.51216,-9.337728 12.79273,-10.259957 z m -119.792258,8.36e-4 c 1.280552,0.922248 6.688099,5.111384 12.792728,10.25996 4.101152,3.45866 7.575635,6.477329 10.72574,9.272138 2.99295,2.633788 6.23468,5.543916 9.93448,8.95727 5.88841,5.43251 10.76564,10.31801 11.85713,11.48842 -1.28057,-0.92209 -6.68889,-5.1114 -12.79356,-10.25996 -4.10089,-3.4588 -7.57559,-6.477345 -10.725553,-9.272138 C 96.337581,92.430914 93.09673,89.520844 89.396879,86.107425 83.508483,80.674944 78.631229,75.789558 77.539764,74.619012 Z m 95.785178,51.214958 v 0.002 c 0.76324,-0.002 1.50649,-8.4e-4 2.23259,0.002 3.06799,0.003 6.42043,0.0429 10.32767,0.1509 5.81609,0.16087 10.78847,0.51974 11.93215,0.64523 -1.16086,0.11649 -6.18126,0.43637 -12.01699,0.55223 -3.66676,0.0734 -6.83992,0.0908 -9.74442,0.075 -3.068,-0.003 -6.42127,-0.0428 -10.32849,-0.15091 -5.81607,-0.16086 -10.78767,-0.51974 -11.93134,-0.64522 1.16086,-0.11666 6.18129,-0.43637 12.01699,-0.55225 2.75003,-0.0548 5.22213,-0.0783 7.51184,-0.0799 z m -71.77648,0.003 c 2.2897,0.001 4.76179,0.0245 7.51185,0.0791 5.83568,0.11587 10.85611,0.43575 12.01699,0.55224 -1.14369,0.12532 -6.11526,0.48436 -11.93134,0.64523 -3.90721,0.10812 -7.2605,0.14756 -10.328486,0.1509 -2.9045,0.0158 -6.077683,-8.4e-4 -9.744433,-0.0742 -5.835722,-0.11585 -10.85614,-0.43654 -12.016992,-0.55305 1.143662,-0.12533 6.116105,-0.48352 11.932156,-0.6444 3.907253,-0.10813 7.259681,-0.14757 10.327666,-0.15091 0.726119,-0.004 1.469369,-0.005 2.232589,-0.003 z m 33.05325,9.2909 c 25.03041,10.60564 21.48853,46.71132 12.88899,67.49892 -1.45173,2.98069 -4.82319,6.03055 -7.80794,9.61799 -10.42309,13.13904 -12.50691,24.08979 -10.04054,39.20205 1.94852,7.00059 6.27454,12.99025 10.63763,18.67888 -25.03039,-10.60565 -21.48852,-46.71131 -12.88898,-67.49892 1.45174,-2.98069 4.82237,-6.03055 7.80713,-9.618 10.42309,-13.13903 12.50691,-24.08977 10.04053,-39.20205 -1.94853,-7.00058 -6.27372,-12.99025 -10.63682,-18.67887 z m -7.76389,1.12079 c -0.0311,0.008 -0.0619,0.0177 -0.0929,0.0261 0.0311,-0.008 0.0619,-0.0178 0.0929,-0.0261 z m 13.93308,3.75225 c 0.0202,0.0875 0.17448,0.59596 0.32956,1.10772 0.0172,0.0268 0.0349,0.0533 0.0522,0.0799 -0.25265,-0.83155 -0.41464,-1.32996 -0.38175,-1.18766 z"
     id="path961"
     inkscape:connector-curvature="0"
     inkscape:label="LeafBean" />
</svg>
