<?xml version="1.0" encoding="UTF-8" standalone="no"?>
<!-- Created with Inkscape (http://www.inkscape.org/) -->

<svg
   xmlns:osb="http://www.openswatchbook.org/uri/2009/osb"
   xmlns:dc="http://purl.org/dc/elements/1.1/"
   xmlns:cc="http://creativecommons.org/ns#"
   xmlns:rdf="http://www.w3.org/1999/02/22-rdf-syntax-ns#"
   xmlns:svg="http://www.w3.org/2000/svg"
   xmlns="http://www.w3.org/2000/svg"
   xmlns:sodipodi="http://sodipodi.sourceforge.net/DTD/sodipodi-0.dtd"
   xmlns:inkscape="http://www.inkscape.org/namespaces/inkscape"
   width="1024"
   height="1024"
   viewBox="0 0 270.93333 270.93334"
   version="1.1"
   id="svg8"
   sodipodi:docname="PELogo2-2.svg"
   inkscape:version="0.92.1 r15371">
  <defs
     id="defs2">
    <linearGradient
       id="linearGradient5965"
       osb:paint="solid">
      <stop
         style="stop-color:#000000;stop-opacity:1;"
         offset="0"
         id="stop5963" />
    </linearGradient>
  </defs>
  <sodipodi:namedview
     id="base"
     pagecolor="#ffffff"
     bordercolor="#666666"
     borderopacity="1.0"
     inkscape:pageopacity="0.0"
     inkscape:pageshadow="2"
     inkscape:zoom="0.45471497"
     inkscape:cx="398.02577"
     inkscape:cy="477.86749"
     inkscape:document-units="mm"
     inkscape:current-layer="layer4"
     showgrid="false"
     inkscape:snap-grids="true"
     units="px"
     inkscape:pagecheckerboard="true"
     inkscape:snap-page="true"
     inkscape:measure-start="1442.22,717.778"
     inkscape:measure-end="1024,508.889"
     inkscape:snap-object-midpoints="true"
     inkscape:snap-text-baseline="false"
     inkscape:snap-center="false"
     inkscape:window-width="1366"
     inkscape:window-height="710"
     inkscape:window-x="0"
     inkscape:window-y="0"
     inkscape:window-maximized="1"
     showguides="false"
     inkscape:guide-bbox="true"
     inkscape:snap-global="true"
     inkscape:snap-nodes="false">
    <inkscape:grid
       type="xygrid"
       id="grid39" />
  </sodipodi:namedview>
  <metadata
     id="metadata5">
    <rdf:RDF>
      <cc:Work
         rdf:about="">
        <dc:format>image/svg+xml</dc:format>
        <dc:type
           rdf:resource="http://purl.org/dc/dcmitype/StillImage" />
        <dc:title></dc:title>
      </cc:Work>
    </rdf:RDF>
  </metadata>
  <g
     inkscape:label="Layer 1"
     inkscape:groupmode="layer"
     id="layer1"
     transform="translate(0,-26.06665)"
     style="display:inline">
    <path
       inkscape:connector-curvature="0"
       id="path3698"
       d="M 135.46666,26.198937 A 135.3342,135.3342 0 0 0 0.13228625,161.53331 135.3342,135.3342 0 0 0 135.46666,296.86768 135.3342,135.3342 0 0 0 270.80103,161.53331 135.3342,135.3342 0 0 0 135.46666,26.198937 Z m 0,45.190523 a 90.143768,90.143768 0 0 1 90.14385,90.14385 90.143768,90.143768 0 0 1 -90.14385,90.14385 90.143768,90.143768 0 0 1 -90.143851,-90.14385 90.143768,90.143768 0 0 1 90.143851,-90.14385 z"
       clip-path="none"
       style="display:inline;fill:#000000;fill-opacity:1;stroke:#000000;stroke-width:0.26494417;stroke-opacity:1"
       inkscape:label="Base C." />
    <g
       id="g10266"
       inkscape:label="Espresso">
      <path
         inkscape:label="Espr. C."
         inkscape:connector-curvature="0"
         id="path9606"
         d="m 35.04362,231.09128 a 122.16013,122.16013 0 0 0 169.981,30.86508 A 122.16013,122.16013 0 0 0 235.8897,91.975338 122.16013,122.16013 0 0 0 65.908687,61.11027 122.16013,122.16013 0 0 0 35.04362,231.09128 Z"
         style="display:inline;fill:none;fill-opacity:1;stroke:none;stroke-width:0.3077445;stroke-opacity:1" />
      <g
         aria-label="ESPRESSO"
         style="font-style:normal;font-variant:normal;font-weight:900;font-stretch:normal;font-size:29.98611069px;line-height:1.25;font-family:Lato;-inkscape-font-specification:'Lato Heavy';letter-spacing:13.22916698px;word-spacing:0px;fill:#ffffff;fill-opacity:1;stroke:none;stroke-width:0.26458332"
         id="text10255"
         inkscape:label="Espr. T.">
        <path
           d="m 61.97016,230.24871 -3.043051,2.43634 -5.603586,-6.99901 -3.979374,3.18598 4.291709,5.36045 -2.92601,2.34264 -4.29171,-5.36045 -4.061302,3.25158 5.603586,6.99901 -3.043051,2.43635 -8.789571,-10.9784 17.052789,-13.65288 z"
           style="letter-spacing:13.22916698px;fill:#ffffff;stroke-width:0.26458332"
           id="path3699"
           inkscape:connector-curvature="0"
           inkscape:label="E1" />
        <path
           d="m 76.879024,248.60991 q -0.396562,0.15099 -0.70837,0.14046 -0.299858,-0.001 -0.610562,-0.23689 -0.274855,-0.20825 -0.470746,-0.62003 -0.174886,-0.41467 -0.418211,-0.93763 -0.231374,-0.5139 -0.618468,-1.07055 -0.37804,-0.5686 -1.0353,-1.0666 -1.135268,-0.86018 -2.068163,-0.79578 -0.91189,0.0615 -1.536654,0.88606 -0.3984,0.5258 -0.326376,1.12589 0.07202,0.60008 0.419636,1.25849 0.359563,0.66746 0.889691,1.40773 0.551134,0.73737 1.080895,1.5526 0.538816,0.80328 0.969345,1.675 0.442479,0.88077 0.572782,1.82599 0.142254,0.95427 -0.111686,1.98455 -0.244886,1.01834 -1.06885,2.10581 -0.914509,1.20697 -2.129565,1.94168 -1.215057,0.7347 -2.613319,0.91676 -1.377258,0.17916 -2.892449,-0.25408 -1.494186,-0.43613 -2.976009,-1.55889 -0.812612,-0.61571 -1.534312,-1.42589 -0.709749,-0.80112 -1.272097,-1.69747 -0.553294,-0.90831 -0.929496,-1.85173 -0.376201,-0.94342 -0.500714,-1.84662 l 2.625637,-0.98268 q 0.29733,-0.0945 0.623983,-0.0539 0.347658,0.0377 0.622513,0.24594 0.358505,0.27164 0.544974,0.77033 0.19842,0.50774 0.444272,1.12667 0.257803,0.62798 0.683275,1.30776 0.425473,0.67978 1.238086,1.29549 1.099417,0.83302 2.071058,0.81679 0.980696,-0.0282 1.777496,-1.07979 0.461782,-0.60946 0.416922,-1.24539 -0.04486,-0.63593 -0.404423,-1.3034 -0.347613,-0.6584 -0.89585,-1.37477 -0.548238,-0.71637 -1.105163,-1.49575 -0.54787,-0.79133 -0.987454,-1.6511 -0.430529,-0.87172 -0.563728,-1.83793 -0.112195,-0.96912 0.177964,-2.04721 0.299213,-1.09004 1.222777,-2.30896 0.742473,-0.97991 1.843083,-1.61323 1.100611,-0.63331 2.41775,-0.78278 1.317139,-0.14947 2.75447,0.2624 1.446385,0.39991 2.880407,1.48646 0.800663,0.60665 1.453924,1.30854 0.674267,0.69899 1.165282,1.46606 0.500069,0.75511 0.823046,1.54534 0.343982,0.78733 0.484076,1.57066 z"
           style="letter-spacing:13.22916698px;fill:#ffffff;stroke-width:0.26458332"
           id="path3701"
           inkscape:connector-curvature="0"
           inkscape:label="S1" />
        <path
           d="m 89.203823,266.70815 -2.795279,6.74537 -4.681593,-1.94005 8.362878,-20.18071 7.119345,2.95025 q 2.133034,0.88393 3.444256,2.02779 1.33081,1.13575 1.94688,2.42973 0.62991,1.29972 0.60148,2.6999 -0.0284,1.40018 -0.60815,2.79912 -0.62564,1.50974 -1.63274,2.56928 -1.0071,1.05953 -2.377449,1.54657 -1.370349,0.48704 -3.120167,0.36241 -1.730228,-0.13275 -3.821709,-0.99945 z m 1.463647,-3.53197 2.437753,1.0102 q 1.828314,0.75766 2.993271,0.21796 1.164957,-0.5397 1.813554,-2.10484 0.286989,-0.69255 0.314558,-1.34653 0.02757,-0.65398 -0.235354,-1.23359 -0.243333,-0.58772 -0.802487,-1.0791 -0.545303,-0.48565 -1.431758,-0.853 l -2.437753,-1.0102 z"
           style="letter-spacing:13.22916698px;fill:#ffffff;stroke-width:0.26458332"
           id="path3703"
           inkscape:connector-curvature="0"
           inkscape:label="P" />
        <path
           d="m 118.40662,274.36151 -1.02237,8.01633 -5.02694,-0.64112 2.76364,-21.66936 7.0496,0.89908 q 2.34987,0.29969 3.93814,1.00103 1.60503,0.68837 2.53609,1.68375 0.94594,0.99729 1.27202,2.23292 0.32608,1.23563 0.14967,2.61878 -0.13467,1.05596 -0.53675,1.95689 -0.40207,0.90093 -1.06966,1.63197 -0.65082,0.71807 -1.54847,1.23839 -0.88279,0.52223 -1.98996,0.78911 0.47343,0.31733 0.85541,0.75902 0.38389,0.42682 0.65957,0.99099 l 3.64883,8.12841 -4.55102,-0.58042 q -1.26417,-0.16123 -1.69306,-1.18325 l -2.79682,-6.75013 q -0.20162,-0.43381 -0.49118,-0.65211 -0.28767,-0.23318 -0.8677,-0.30715 z m 0.44195,-3.46531 2.02268,0.25796 q 1.02621,0.13088 1.77234,-0.0309 0.76289,-0.17476 1.28275,-0.57701 0.51985,-0.40225 0.80583,-0.98547 0.28788,-0.59809 0.37893,-1.31198 0.18209,-1.42777 -0.65245,-2.35038 -0.81968,-0.92073 -2.76799,-1.16921 l -2.02267,-0.25796 z"
           style="letter-spacing:13.22916698px;fill:#ffffff;stroke-width:0.26458332"
           id="path3705"
           inkscape:connector-curvature="0"
           inkscape:label="R" />
        <path
           d="m 156.29589,259.9896 0.51295,3.8643 -8.88789,1.17977 0.67077,5.05331 6.80711,-0.90357 0.49322,3.71567 -6.80711,0.90357 0.68458,5.15736 8.88789,-1.17977 0.51295,3.86429 -13.94121,1.85055 -2.87446,-21.65494 z"
           style="letter-spacing:13.22916698px;fill:#ffffff;stroke-width:0.26458332"
           id="path3707"
           inkscape:connector-curvature="0"
           inkscape:label="E2" />
        <path
           d="m 179.69721,256.69494 q -0.0753,0.41759 -0.24524,0.67924 -0.15601,0.25609 -0.51799,0.40073 -0.32023,0.12796 -0.77402,0.0833 -0.44544,-0.0642 -1.01896,-0.12565 -0.55958,-0.067 -1.23615,-0.0227 -0.68212,0.0304 -1.44787,0.33637 -1.32265,0.52852 -1.74892,1.36083 -0.41791,0.81282 -0.034,1.77349 0.24478,0.61259 0.79596,0.86058 0.55117,0.24798 1.29452,0.29 0.75727,0.0365 1.66493,-0.0356 0.91601,-0.0916 1.88769,-0.12462 0.96611,-0.047 1.93497,0.0341 0.98277,0.0755 1.85964,0.45168 0.8908,0.37061 1.64225,1.11981 0.74589,0.73527 1.25216,2.00224 0.5619,1.40619 0.56418,2.8261 0.002,1.41991 -0.56335,2.71155 -0.55728,1.27216 -1.71029,2.34643 -1.14466,1.05479 -2.87107,1.74464 -0.94674,0.37831 -2.01313,0.57839 -1.05248,0.19452 -2.11046,0.21364 -1.06354,0.005 -2.06577,-0.15943 -1.00224,-0.16461 -1.84014,-0.52406 l 0.51326,-2.75612 q 0.0725,-0.30345 0.27583,-0.5623 0.21169,-0.27834 0.53191,-0.4063 0.41768,-0.1669 0.94106,-0.0693 0.53731,0.0921 1.19433,0.20088 0.67094,0.10325 1.47278,0.0896 0.80184,-0.0136 1.74858,-0.39194 1.28088,-0.51183 1.7684,-1.35247 0.48196,-0.85456 -0.008,-2.07976 -0.28374,-0.71005 -0.8516,-0.99981 -0.56786,-0.28975 -1.32514,-0.32621 -0.74335,-0.042 -1.63987,0.0579 -0.89653,0.0999 -1.85152,0.17475 -0.96055,0.0609 -1.92384,-0.006 -0.96885,-0.0811 -1.86521,-0.46561 -0.888,-0.40401 -1.6617,-1.2089 -0.77927,-0.81881 -1.34674,-2.23892 -0.4562,-1.14166 -0.43069,-2.41122 0.0255,-1.26956 0.57719,-2.4749 0.55168,-1.20534 1.64621,-2.22395 1.08896,-1.03253 2.75968,-1.70013 0.93282,-0.37275 1.87115,-0.57009 0.94668,-0.21683 1.8571,-0.24157 0.90486,-0.0387 1.74841,0.0925 0.85191,0.11166 1.59518,0.39591 z"
           style="letter-spacing:13.22916698px;fill:#ffffff;stroke-width:0.26458332"
           id="path3709"
           inkscape:connector-curvature="0"
           inkscape:label="S2" />
        <path
           d="m 201.41656,243.13434 q 0.0275,0.42344 -0.0744,0.71832 -0.0897,0.28613 -0.40619,0.51373 -0.27996,0.20133 -0.73116,0.26727 -0.44779,0.045 -1.01921,0.12354 -0.55925,0.0698 -1.20521,0.27577 -0.65472,0.19382 -1.32419,0.67527 -1.15637,0.83161 -1.36956,1.74209 -0.20978,0.88957 0.39422,1.72945 0.38517,0.53558 0.97985,0.64348 0.59468,0.10789 1.32626,-0.0304 0.74375,-0.14705 1.60731,-0.43567 0.86698,-0.30954 1.80207,-0.57572 0.92634,-0.27836 1.88619,-0.43308 0.97202,-0.16347 1.91369,-0.01 0.95384,0.14509 1.86365,0.69118 0.90106,0.53392 1.69765,1.6416 0.88412,1.2294 1.22842,2.60694 0.3443,1.37754 0.1065,2.76741 -0.23438,1.36894 -1.09462,2.68935 -0.85683,1.29949 -2.36619,2.38494 -0.82772,0.59526 -1.8145,1.04636 -0.97461,0.44234 -1.99682,0.71578 -1.03097,0.26127 -2.04334,0.34295 -1.01237,0.0817 -1.91219,-0.0653 l -0.16586,-2.79859 q -0.003,-0.31198 0.13224,-0.61219 0.1384,-0.32114 0.41836,-0.52248 0.36517,-0.26261 0.89666,-0.29395 0.54366,-0.0401 1.20754,-0.0928 0.67606,-0.0614 1.45099,-0.26784 0.77493,-0.20641 1.60265,-0.80166 1.11985,-0.80534 1.39049,-1.73867 0.26188,-0.94551 -0.50844,-2.01667 -0.44644,-0.62078 -1.06739,-0.76519 -0.62094,-0.14441 -1.36469,0.003 -0.73158,0.1383 -1.57763,0.45126 -0.84605,0.31296 -1.75488,0.61566 -0.91759,0.29053 -1.86868,0.45742 -0.95985,0.15472 -1.92245,-0.003 -0.95917,-0.17818 -1.904,-0.77296 -0.95359,-0.60696 -1.84646,-1.84853 -0.71781,-0.99813 -0.99891,-2.23644 -0.2811,-1.23831 -0.0361,-2.54105 0.24505,-1.30275 1.06193,-2.55504 0.80814,-1.26447 2.26881,-2.31492 0.81555,-0.5865 1.67869,-1.00408 0.86656,-0.43852 1.74421,-0.68186 0.8689,-0.25552 1.71919,-0.33145 0.85372,-0.0969 1.64357,-6e-5 z"
           style="letter-spacing:13.22916698px;fill:#ffffff;stroke-width:0.26458332"
           id="path3711"
           inkscape:connector-curvature="0"
           inkscape:label="S3" />
        <path
           d="m 229.67943,221.80736 q 1.85512,1.47316 2.93913,3.38697 1.09333,1.90207 1.35614,4.00617 0.25107,2.09477 -0.38501,4.27001 -0.62676,2.1635 -2.21181,4.15952 -1.58504,1.99602 -3.55963,3.10834 -1.97459,1.11232 -4.0811,1.35407 -2.10893,0.22069 -4.21856,-0.40158 -2.1003,-0.63401 -3.95543,-2.10718 -1.85512,-1.47316 -2.94845,-3.37523 -1.08401,-1.91381 -1.33508,-4.00858 -0.24175,-2.10651 0.39433,-4.28175 0.63608,-2.17524 2.22113,-4.17126 1.58505,-1.99602 3.56206,-3.08728 1.97459,-1.11233 4.07177,-1.34233 2.09719,-0.23001 4.1975,0.404 2.10962,0.62227 3.95301,2.08611 z m -3.22605,4.06249 q -1.26806,-1.00697 -2.53887,-1.48007 -1.28256,-0.48241 -2.48121,-0.41955 -1.18931,0.0511 -2.27364,0.64509 -1.08434,0.59398 -1.98875,1.73288 -0.91373,1.15065 -1.25594,2.35309 -0.33289,1.1907 -0.12258,2.37242 0.21964,1.16998 0.98007,2.30991 0.74868,1.1306 2.01674,2.13757 1.27981,1.0163 2.56236,1.49872 1.27082,0.47309 2.46014,0.42197 1.19864,-0.0629 2.28297,-0.65683 1.08192,-0.61505 1.99565,-1.76569 0.90441,-1.13891 1.24904,-2.32029 0.33289,-1.1907 0.11325,-2.36067 -0.21031,-1.18172 -0.959,-2.31233 -0.76042,-1.13993 -2.04023,-2.15622 z"
           style="letter-spacing:13.22916698px;fill:#ffffff;stroke-width:0.26458332"
           id="path3713"
           inkscape:connector-curvature="0"
           inkscape:label="O" />
      </g>
    </g>
    <g
       id="g10030"
       inkscape:label="Pineapple"
       style="display:inline">
      <path
         inkscape:label="Pine. C."
         inkscape:connector-curvature="0"
         id="circle9768"
         d="M 42.830839,123.38537 A 100.18313,100.18313 0 0 1 173.6146,68.897501 100.18313,100.18313 0 0 1 228.10248,199.68126 100.18313,100.18313 0 0 1 97.318716,254.16913 100.18313,100.18313 0 0 1 42.830839,123.38537 Z"
         style="display:inline;fill:none;fill-opacity:1;stroke:none;stroke-width:0.25238031;stroke-opacity:1" />
      <g
         aria-label="PINEAPPLE"
         style="font-style:normal;font-variant:normal;font-weight:900;font-stretch:normal;font-size:29.98611069px;line-height:1.25;font-family:Lato;-inkscape-font-specification:'Lato Heavy';letter-spacing:9.26041698px;word-spacing:0px;fill:#ffffff;fill-opacity:1;stroke:none;stroke-width:0.26458332"
         id="text9792"
         inkscape:label="Pine. T.">
        <path
           d="m 39.312614,113.42942 6.459703,3.4038 -2.362391,4.48333 -19.326052,-10.18345 3.592512,-6.81783 q 1.076356,-2.0427 2.33596,-3.24317 1.253329,-1.220717 2.598485,-1.715164 1.352145,-0.507711 2.743774,-0.350626 1.391629,0.157086 2.731321,0.863008 1.445807,0.761832 2.40823,1.862112 0.962422,1.10028 1.321369,2.50961 0.358947,1.40934 0.07391,3.14028 -0.291312,1.71068 -1.3467,3.71359 z m -3.382391,-1.78227 1.230122,-2.33452 q 0.92259,-1.75088 0.492322,-2.96054 -0.430269,-1.20965 -1.929132,-1.99945 -0.663214,-0.34946 -1.311889,-0.43706 -0.648676,-0.0876 -1.250009,0.1209 -0.607608,0.18825 -1.148334,0.69984 -0.533738,0.49833 -0.981055,1.34725 l -1.230121,2.33451 z"
           style="fill:#ffffff;stroke-width:0.26458332"
           id="path3716"
           inkscape:connector-curvature="0"
           inkscape:label="P1" />
        <path
           d="m 61.818718,93.528318 -3.361315,3.832426 -16.42307,-14.404222 3.361314,-3.832426 z"
           style="fill:#ffffff;stroke-width:0.26458332"
           id="path3718"
           inkscape:connector-curvature="0"
           inkscape:label="I" />
        <path
           d="m 61.333146,64.342303 q 0.273221,-0.184797 0.476307,-0.285956 0.203087,-0.10116 0.402515,-0.127443 0.191029,-0.0387 0.411637,-0.0069 0.220609,0.03179 0.537274,0.12532 l 15.943887,5.054036 q -0.40247,-0.488003 -0.754902,-0.955549 -0.360832,-0.479965 -0.654826,-0.914634 l -6.476277,-9.575137 3.700896,-2.503152 12.238567,18.094649 -2.185764,1.478372 q -0.484345,0.327594 -0.92046,0.40536 -0.432094,0.05695 -1.015386,-0.109649 L 67.213621,70.012508 q 0.356451,0.446727 0.692084,0.889435 0.327232,0.430288 0.596027,0.8277 l 6.560275,9.699328 -3.700896,2.503152 -12.238567,-18.094649 z"
           style="fill:#ffffff;stroke-width:0.26458332"
           id="path3720"
           inkscape:connector-curvature="0"
           inkscape:label="N" />
        <path
           d="m 106.51784,42.739514 1.15809,3.722197 -8.561058,2.663601 1.514418,4.867489 6.5568,-2.040015 1.11354,3.579036 -6.55679,2.040015 1.5456,4.967702 8.56105,-2.663601 1.15809,3.722197 -13.428541,4.178023 -6.489743,-20.858621 z"
           style="fill:#ffffff;stroke-width:0.26458332"
           id="path3722"
           inkscape:connector-curvature="0"
           inkscape:label="E1" />
        <path
           d="m 144.84449,61.14953 -3.9276,0.06719 q -0.6596,0.01128 -1.06948,-0.281608 -0.41014,-0.307884 -0.62822,-0.784001 l -1.35436,-3.785622 -8.30494,0.142084 -1.22407,3.829735 q -0.15771,0.422565 -0.58655,0.774792 -0.4141,0.336981 -1.04372,0.347752 l -3.95759,0.06771 8.08117,-21.986334 5.18684,-0.08874 z m -14.1743,-8.109855 5.96637,-0.102075 -2.11111,-5.946987 q -0.23461,-0.565805 -0.50253,-1.325979 -0.26818,-0.775165 -0.53842,-1.670257 -0.22421,0.918546 -0.46571,1.702431 -0.22652,0.783628 -0.44164,1.357128 z"
           style="fill:#ffffff;stroke-width:0.26458332"
           id="path3724"
           inkscape:connector-curvature="0"
           inkscape:label="A" />
        <path
           d="m 162.63592,57.500415 -2.00683,7.020418 -4.87249,-1.392827 6.004,-21.003593 7.40964,2.118086 q 2.22001,0.634602 3.65326,1.621268 1.45179,0.976371 2.21157,2.191548 0.77419,1.219299 0.90582,2.613567 0.13162,1.394268 -0.28458,2.850248 -0.44917,1.571305 -1.32871,2.738901 -0.87954,1.167596 -2.18531,1.807915 -1.30578,0.64032 -3.05839,0.716291 -1.73407,0.06568 -3.91083,-0.556563 z m 1.0508,-3.67599 2.53715,0.72526 q 1.90287,0.543944 2.99859,-0.125235 1.09571,-0.66918 1.56136,-2.298148 0.20604,-0.720782 0.15876,-1.373635 -0.0473,-0.652854 -0.37467,-1.198652 -0.30884,-0.556093 -0.92044,-0.98042 -0.59719,-0.420207 -1.51979,-0.683938 l -2.53715,-0.725259 z"
           style="fill:#ffffff;stroke-width:0.26458332"
           id="path3726"
           inkscape:connector-curvature="0"
           inkscape:label="P2" />
        <path
           d="m 190.5934,69.215612 -3.87422,6.189024 -4.29547,-2.688886 11.59085,-18.516238 6.53216,4.089017 q 1.9571,1.225113 3.06069,2.570408 1.12425,1.340541 1.51741,2.718708 0.40587,1.386123 0.14585,2.762239 -0.26002,1.376117 -1.06351,2.659672 -0.86712,1.385223 -2.03585,2.263259 -1.16873,0.878035 -2.60083,1.131305 -1.4321,0.25327 -3.13709,-0.159553 -1.68432,-0.417577 -3.6033,-1.618824 z m 2.0286,-3.240659 2.23669,1.40013 q 1.67752,1.050098 2.91579,0.710871 1.23827,-0.339227 2.13722,-1.775284 0.39777,-0.635424 0.53331,-1.2758 0.13553,-0.640376 -0.0277,-1.255536 -0.1426,-0.619912 -0.61261,-1.197146 -0.45731,-0.569279 -1.27065,-1.078417 l -2.23669,-1.40013 z"
           style="fill:#ffffff;stroke-width:0.26458332"
           id="path3728"
           inkscape:connector-curvature="0"
           inkscape:label="P3" />
        <path
           d="m 211.69584,90.40793 5.48018,5.959608 -2.9798,2.740089 -8.91037,-9.689881 16.07991,-14.786329 3.43018,3.730274 z"
           style="fill:#ffffff;stroke-width:0.26458332"
           id="path3730"
           inkscape:connector-curvature="0"
           inkscape:label="L" />
        <path
           d="m 246.84449,111.10132 -3.44511,1.82405 -4.1953,-7.92375 -4.50514,2.38529 3.21312,6.06869 -3.3126,1.75389 -3.21313,-6.06869 -4.5979,2.43439 4.19531,7.92376 -3.44511,1.82404 -6.58059,-12.42889 19.30586,-10.221671 z"
           style="fill:#ffffff;stroke-width:0.26458332"
           id="path3732"
           inkscape:connector-curvature="0"
           inkscape:label="E2" />
      </g>
    </g>
    <path
       style="display:inline;fill:#ffffff;fill-opacity:1;stroke:#000000;stroke-width:0.29051077;stroke-opacity:1"
       d="M 225.61043,161.53331 A 90.143768,90.143768 0 0 1 135.46666,251.67708 90.143768,90.143768 0 0 1 45.322891,161.53331 90.143768,90.143768 0 0 1 135.46666,71.389542 90.143768,90.143768 0 0 1 225.61043,161.53331 Z"
       id="path8707"
       inkscape:connector-curvature="0"
       inkscape:label="Center C." />
  </g>
  <g
     inkscape:groupmode="layer"
     id="layer2"
     inkscape:label="Layer 2"
     style="display:inline">
    <path
       inkscape:connector-curvature="0"
       id="path961-3"
       style="fill:#ffffff;fill-opacity:1;stroke:#000000;stroke-width:0;stroke-miterlimit:4;stroke-dasharray:none;stroke-dashoffset:0;stroke-opacity:1"
       d="m 8.2946528,135.9346 c 7e-6,5.97934 6.2562942,10.82655 13.9738092,10.82655 v -8.75447 c -0.61453,-0.29931 -1.243287,-0.99439 -1.982919,-1.60977 -2.708905,-2.14894 -4.966663,-2.57857 -8.082388,-2.07007 -1.443329,0.40173 -2.6783221,1.29361 -3.8511532,2.19316 2.1865912,-5.16057 9.6306382,-4.43046 13.9164602,-2.65747 1.325122,-0.50826 0,-7.06604 0,-8.75447 -7.717515,0 -13.9738022,4.8472 -13.9738092,10.82654 z m 27.9476262,0 c -7e-6,-2.87137 -1.472247,-5.62515 -4.09284,-7.65552 -2.6206,-2.03037 -6.17489,-3.17102 -9.880977,-3.17102 v 8.75447 c 0.614538,0.2993 1.243294,0.99438 1.982926,1.60975 2.708906,2.14895 4.966663,2.57858 8.082389,2.07009 1.443328,-0.40173 2.678315,-1.29361 3.851153,-2.19316 -2.186591,5.16057 -9.630645,4.43046 -13.916468,2.65747 -1.325121,0.50825 0,7.06604 0,8.75447 3.706087,0 7.260377,-1.14065 9.880977,-3.17102 2.620593,-2.03037 4.092833,-4.78415 4.09284,-7.65553 z"
       inkscape:label="LeftBean" />
    <path
       d="m 262.94673,135.9346 c 0,5.97934 -6.25629,10.82655 -13.9738,10.82655 v -8.75447 c 0.61453,-0.29931 1.24328,-0.99439 1.98291,-1.60977 2.70891,-2.14894 4.96667,-2.57857 8.08239,-2.07007 1.44333,0.40173 2.67832,1.29361 3.85116,2.19316 -2.1866,-5.16057 -9.63064,-4.43046 -13.91646,-2.65747 -1.32513,-0.50826 0,-7.06604 0,-8.75447 7.71751,0 13.9738,4.8472 13.9738,10.82654 z m -27.94762,0 c 1e-5,-2.87137 1.47225,-5.62515 4.09284,-7.65552 2.6206,-2.03037 6.17489,-3.17102 9.88098,-3.17102 v 8.75447 c -0.61454,0.2993 -1.2433,0.99438 -1.98293,1.60975 -2.70891,2.14895 -4.96666,2.57858 -8.08239,2.07009 -1.44333,-0.40173 -2.67831,-1.29361 -3.85115,-2.19316 2.18659,5.16057 9.63064,4.43046 13.91647,2.65747 1.32512,0.50825 0,7.06604 0,8.75447 -3.70609,0 -7.26038,-1.14065 -9.88098,-3.17102 -2.62059,-2.03037 -4.09283,-4.78415 -4.09284,-7.65553 z"
       style="fill:#ffffff;fill-opacity:1;stroke:#000000;stroke-width:0;stroke-miterlimit:4;stroke-dasharray:none;stroke-dashoffset:0;stroke-opacity:1"
       id="path1028"
       inkscape:connector-curvature="0"
       inkscape:label="RightBean" />
  </g>
  <g
     inkscape:groupmode="layer"
     id="layer4"
     inkscape:label="Layer 3">
    <path
       style="display:inline;fill:#000000;fill-opacity:1;stroke:#000000;stroke-width:0;stroke-miterlimit:4;stroke-dasharray:none;stroke-dashoffset:0;stroke-opacity:1"
       d="m 135.46633,47.654013 c -0.1587,0.236211 -0.34448,0.546177 -0.55206,0.92471 -0.0692,0.126174 -0.14057,0.260124 -0.21447,0.401306 -0.074,0.141193 -0.14998,0.289575 -0.22825,0.445375 -0.0783,0.155779 -0.15873,0.318892 -0.241,0.488898 -0.24677,0.509999 -0.51092,1.082933 -0.78723,1.713528 -0.2763,0.630582 -0.56483,1.318784 -0.86101,2.059105 -6.3038,17.400615 -10.83666,38.526166 -7.43751,56.097495 -0.23847,-0.2335 -0.47646,-0.46708 -0.71928,-0.7007 -0.0127,-0.0122 -0.0259,-0.025 -0.0387,-0.0372 C 115.03471,96.933639 99.178464,90.106414 89.411735,86.486621 88.737351,86.245828 88.102186,86.031117 87.513472,85.84219 86.924758,85.653273 86.38229,85.490396 85.892303,85.353282 c -0.163329,-0.04571 -0.321049,-0.08855 -0.472442,-0.128455 -0.151392,-0.04006 -0.296314,-0.07725 -0.435277,-0.111475 -0.138973,-0.03421 -0.272071,-0.06543 -0.398132,-0.09399 -0.378061,-0.08526 -0.696901,-0.144736 -0.950195,-0.178368 0.06472,0.247172 0.162805,0.555987 0.294085,0.920467 0.04376,0.121573 0.09112,0.249596 0.14226,0.383269 0.05105,0.133673 0.105702,0.272995 0.164028,0.418297 0.05835,0.145301 0.120278,0.296899 0.185794,0.453326 0.19655,0.469319 0.425683,0.987576 0.685838,1.548452 0.260166,0.560886 0.551539,1.164279 0.873749,1.803768 8.510609,13.460877 13.787843,24.224457 26.704129,31.921717 0.0144,0.0114 0.0281,0.0235 0.0424,0.035 0.29298,0.23739 0.58577,0.47199 0.878,0.70441 0.061,0.0484 0.12165,0.0955 0.1826,0.14387 -7.87793,-0.14503 -16.072362,2.27466 -22.863005,4.50571 -0.428199,0.1518 -0.826475,0.30078 -1.191726,0.44378 -0.365251,0.14303 -0.697261,0.28035 -0.993195,0.40928 -0.09861,0.0429 -0.19354,0.0847 -0.283997,0.12581 -0.0905,0.041 -0.176467,0.081 -0.258512,0.11997 -0.08207,0.0389 -0.160186,0.0765 -0.233571,0.11306 -0.220206,0.10959 -0.400731,0.20856 -0.53879,0.29355 0.130838,0.0957 0.302672,0.2083 0.513315,0.33496 0.07026,0.0422 0.145301,0.0858 0.224007,0.13112 0.07879,0.0452 0.161511,0.092 0.248435,0.14013 0.08701,0.0481 0.177936,0.0979 0.272852,0.14864 0.284737,0.15205 0.604358,0.31519 0.957087,0.48677 0.352719,0.17159 0.738227,0.35128 1.15298,0.53668 13.3958,5.22306 22.6686,7.5159 33.68406,5.10874 -0.92868,0.95464 -1.74021,1.78903 -2.50022,2.5772 -3.94795,2.18899 -7.57949,5.33718 -10.67668,9.33472 -6.4087,8.27171 -10.00887,19.49067 -10.00887,31.18862 0,24.35973 15.29968,44.10697 34.17297,44.107 18.87331,-2e-5 34.1735,-19.74727 34.17351,-44.107 0,-11.69795 -3.60071,-22.91691 -10.00941,-31.18862 -3.09734,-3.99773 -6.72902,-7.14572 -10.6772,-9.33472 -0.7599,-0.78806 -1.57111,-1.62267 -2.49969,-2.5772 11.01546,2.40715 20.28826,0.11432 33.68407,-5.10874 0.41474,-0.1854 0.80024,-0.36509 1.15297,-0.53668 0.35272,-0.17158 0.67287,-0.33471 0.95763,-0.48677 0.0949,-0.0507 0.18594,-0.10046 0.27284,-0.14864 0.087,-0.0481 0.16974,-0.0948 0.24844,-0.14013 0.0788,-0.0452 0.15321,-0.089 0.22347,-0.13112 0.21081,-0.12675 0.38351,-0.23925 0.51438,-0.33496 h -0.001 c -0.13807,-0.085 -0.3186,-0.18396 -0.53881,-0.29355 -0.0733,-0.0366 -0.15099,-0.0742 -0.23302,-0.11306 -0.0821,-0.0389 -0.16857,-0.079 -0.25905,-0.11997 -0.0904,-0.0411 -0.18482,-0.0828 -0.28347,-0.12581 -0.29583,-0.12893 -0.62785,-0.26625 -0.9931,-0.40928 -0.36525,-0.143 -0.76406,-0.29198 -1.19224,-0.44378 -6.79065,-2.23105 -14.98509,-4.65074 -22.86304,-4.50571 0.0609,-0.0484 0.12157,-0.0953 0.1826,-0.14387 0.29223,-0.23242 0.58501,-0.46702 0.87801,-0.70441 0.0144,-0.0115 0.0286,-0.0236 0.043,-0.035 12.9163,-7.69726 18.19354,-18.46084 26.70414,-31.921717 0.32222,-0.639489 0.61358,-1.242882 0.87374,-1.803768 0.26018,-0.560876 0.48875,-1.079133 0.68531,-1.548452 0.0655,-0.156427 0.12746,-0.308025 0.18579,-0.453326 0.0583,-0.145302 0.1135,-0.284624 0.16456,-0.418297 0.0511,-0.133673 0.0984,-0.261696 0.14227,-0.383269 0.13126,-0.36448 0.22945,-0.673295 0.29408,-0.920467 -0.2533,0.03359 -0.57266,0.09307 -0.95073,0.178368 -0.12606,0.02845 -0.25862,0.05968 -0.39759,0.09399 -0.13897,0.03421 -0.28388,0.07149 -0.43528,0.111465 -0.15139,0.03996 -0.30912,0.08269 -0.47245,0.128454 -0.48998,0.137125 -1.03296,0.300002 -1.62169,0.488919 -0.58873,0.188927 -1.22335,0.403638 -1.89774,0.644431 -9.76673,3.619793 -25.62352,10.447018 -34.97558,22.559919 -0.0128,0.0123 -0.025,0.0251 -0.0377,0.0372 -0.24282,0.23363 -0.48187,0.46721 -0.72034,0.7007 3.39915,-17.571318 -1.13372,-38.69688 -7.43752,-56.097497 -0.29617,-0.740331 -0.5847,-1.428512 -0.86102,-2.059105 -0.2763,-0.630585 -0.53992,-1.20353 -0.7867,-1.713528 -0.0822,-0.170006 -0.16266,-0.333099 -0.24093,-0.488898 -0.0783,-0.155789 -0.15488,-0.304193 -0.22879,-0.445375 -0.074,-0.141192 -0.14527,-0.275122 -0.21446,-0.401306 -0.20758,-0.378521 -0.39338,-0.688497 -0.55206,-0.924708 z m -0.003,22.093838 c 0.13053,1.352673 0.4924,7.115537 0.64019,13.836721 0.0932,4.234126 0.1246,7.90226 0.12049,11.262174 0.009,3.547927 -0.0194,7.427874 -0.1189,11.954924 -0.14823,6.7387 -0.51216,12.51774 -0.64178,13.85053 -0.12962,-1.33279 -0.49301,-7.11183 -0.64125,-13.85053 -0.0995,-4.52705 -0.12918,-8.406997 -0.1189,-11.954924 -0.003,-3.359914 0.0274,-7.028048 0.1205,-11.262174 0.14784,-6.721236 0.50917,-12.484428 0.63965,-13.836721 z m 38.97861,26.120759 c -0.71027,0.76173 -3.88423,3.940974 -7.71619,7.47628 -2.40777,2.22133 -4.51729,4.11564 -6.46503,5.82961 -2.04997,1.81875 -4.31058,3.78313 -6.97942,6.03399 -3.97269,3.35051 -7.49226,6.07615 -8.32559,6.6763 0.71027,-0.76173 3.88423,-3.94095 7.7162,-7.47626 2.40771,-2.22128 4.51732,-4.11511 6.46503,-5.82909 2.04998,-1.81874 4.31104,-3.78313 6.97994,-6.03399 3.97269,-3.350517 7.49173,-6.076693 8.32506,-6.67684 z m -77.956688,5.45e-4 c 0.833339,0.600167 4.352388,3.326312 8.325068,6.676845 2.66889,2.25077 4.92996,4.21522 6.97994,6.03399 1.94771,1.71397 4.05732,3.60779 6.46502,5.82909 3.83197,3.53529 7.00591,6.71461 7.71621,7.47625 -0.83335,-0.60006 -4.35289,-3.32632 -8.3256,-6.67683 -2.66884,-2.25087 -4.93006,-4.21523 -6.97993,-6.03399 -1.94774,-1.71398 -4.05677,-3.60774 -6.4645,-5.82909 -3.83197,-3.535281 -7.005921,-6.714515 -7.716208,-7.476265 z m 62.333728,33.328955 v 0.002 c 0.49667,-0.001 0.98036,-5.4e-4 1.4529,0.002 1.99652,0.002 4.17818,0.0279 6.72088,0.0982 3.78491,0.10468 7.02078,0.3382 7.76503,0.41988 -0.75544,0.0758 -4.02255,0.28398 -7.82024,0.35936 -2.3862,0.0478 -4.45119,0.0591 -6.34135,0.0489 -1.99654,-0.002 -4.17873,-0.0278 -6.72142,-0.0982 -3.7849,-0.1047 -7.02025,-0.33825 -7.7645,-0.41989 0.75544,-0.0759 4.02256,-0.28398 7.82024,-0.3594 1.78962,-0.0356 3.39838,-0.051 4.88846,-0.052 z m -46.70969,0.002 c 1.49006,8.1e-4 3.09881,0.0159 4.88845,0.0515 3.79767,0.0754 7.0648,0.28356 7.82026,0.35937 -0.74429,0.0816 -3.97961,0.31521 -7.76452,0.41989 -2.54268,0.0704 -4.72488,0.096 -6.72142,0.0982 -1.89015,0.0103 -3.95514,-5.4e-4 -6.34134,-0.0483 -3.79769,-0.0754 -7.064808,-0.28409 -7.820251,-0.3599 0.744256,-0.0816 3.980151,-0.31467 7.765041,-0.41936 2.5427,-0.0704 4.72436,-0.096 6.72089,-0.0982 0.47254,-0.002 0.95621,-0.003 1.45289,-0.002 z m 21.50993,6.04621 c 16.28894,6.90179 13.984,30.39812 8.38771,43.92598 -0.94473,1.93973 -3.13877,3.92448 -5.08115,6.25906 -6.78298,8.55044 -8.13906,15.67681 -6.53403,25.51135 1.26803,4.55574 4.08324,8.45361 6.9226,12.15557 -16.28893,-6.90179 -13.98399,-30.39812 -8.3877,-43.92598 0.94474,-1.93973 3.13823,-3.92448 5.08061,-6.25907 6.78299,-8.55043 8.13906,-15.6768 6.53403,-25.51135 -1.26804,-4.55574 -4.08271,-8.4536 -6.92207,-12.15556 z m -5.05247,0.72936 c -0.0202,0.005 -0.0403,0.0115 -0.0605,0.017 0.0202,-0.005 0.0403,-0.0116 0.0605,-0.017 z m 9.06716,2.44184 c 0.0132,0.057 0.11355,0.38783 0.21446,0.72086 0.0112,0.0175 0.0227,0.0346 0.034,0.052 -0.16442,-0.54114 -0.26984,-0.86549 -0.24843,-0.77289 z"
       id="path961-1"
       inkscape:connector-curvature="0"
       inkscape:label="Leafbean" />
  </g>
</svg>
